<?xml version="1.0" encoding="utf-8"?>
<!-- Generator: Adobe Illustrator 23.0.1, SVG Export Plug-In . SVG Version: 6.00 Build 0)  -->
<svg version="1.1" id="Layer_1" xmlns="http://www.w3.org/2000/svg" xmlns:xlink="http://www.w3.org/1999/xlink" x="0px" y="0px"
	 viewBox="0 0 125 40" style="enable-background:new 0 0 125 40;" xml:space="preserve">
<style type="text/css">
	.st0{fill:#58CFF9;}
	.st1{fill:#3D424C;}
	.st2{fill:#51C2F4;}
</style>
<g id="XMLID_67_">
	<polygon id="XMLID_62_" class="st0" points="118.85,31.54 76.58,31.54 62.94,8.04 49.29,31.54 7.02,31.54 4.18,36 51.18,36 
		62.94,15.74 74.69,36 121.69,36 	"/>
	<g id="XMLID_63_">
		<polygon id="XMLID_65_" class="st1" points="100.22,26.55 86.57,3.04 74.1,24.53 76.34,28.38 86.57,10.74 97.46,29.52 
			101.94,29.52 100.22,26.55 		"/>
	</g>
	<g id="XMLID_64_">
		<polygon id="XMLID_66_" class="st2" points="79.7,24.62 86.12,13.36 86.57,12.56 87.03,13.36 93.44,24.62 86.12,13.93 
			87.03,13.93 		"/>
	</g>
	<rect id="XMLID_61_" x="82.97" y="26.05" class="st1" width="2.7" height="2.7"/>
	<rect id="XMLID_68_" x="86.93" y="26.05" class="st1" width="2.7" height="2.7"/>
	<rect id="XMLID_73_" x="82.97" y="22.02" class="st1" width="2.7" height="2.7"/>
	<rect id="XMLID_72_" x="86.93" y="22.02" class="st1" width="2.7" height="2.7"/>
	<g id="XMLID_84_">
		<polygon id="XMLID_85_" class="st1" points="25.53,26.55 39.18,3.04 51.65,24.53 49.41,28.38 39.18,10.74 28.29,29.52 
			23.81,29.52 25.53,26.55 		"/>
	</g>
	<g id="XMLID_80_">
		<polygon id="XMLID_81_" class="st2" points="46.05,24.62 38.72,13.93 39.63,13.93 32.3,24.62 38.72,13.36 39.18,12.56 
			39.63,13.36 		"/>
	</g>
	<g id="XMLID_82_">
		<polygon id="XMLID_89_" class="st2" points="69.81,30.21 62.48,19.52 63.39,19.52 56.06,30.21 62.48,18.95 62.93,18.14 
			63.39,18.95 		"/>
	</g>
	
		<rect id="XMLID_79_" x="40.08" y="26.05" transform="matrix(-1 -1.224647e-16 1.224647e-16 -1 82.8534 54.8012)" class="st1" width="2.7" height="2.7"/>
	
		<rect id="XMLID_78_" x="36.11" y="26.05" transform="matrix(-1 -1.224647e-16 1.224647e-16 -1 74.9293 54.8012)" class="st1" width="2.7" height="2.7"/>
	
		<rect id="XMLID_77_" x="40.08" y="22.02" transform="matrix(-1 -1.224647e-16 1.224647e-16 -1 82.8534 46.742)" class="st1" width="2.7" height="2.7"/>
	
		<rect id="XMLID_74_" x="36.11" y="22.02" transform="matrix(-1 -1.224647e-16 1.224647e-16 -1 74.9293 46.742)" class="st1" width="2.7" height="2.7"/>
	
		<rect id="XMLID_88_" x="63.57" y="32.78" transform="matrix(-1 -1.224647e-16 1.224647e-16 -1 129.8342 68.2631)" class="st1" width="2.7" height="2.7"/>
	
		<rect id="XMLID_87_" x="59.6" y="32.78" transform="matrix(-1 -1.224647e-16 1.224647e-16 -1 121.91 68.2631)" class="st1" width="2.7" height="2.7"/>
	
		<rect id="XMLID_86_" x="63.57" y="28.75" transform="matrix(-1 -1.224647e-16 1.224647e-16 -1 129.8342 60.204)" class="st1" width="2.7" height="2.7"/>
	
		<rect id="XMLID_83_" x="59.6" y="28.75" transform="matrix(-1 -1.224647e-16 1.224647e-16 -1 121.91 60.204)" class="st1" width="2.7" height="2.7"/>
</g>
</svg>
